<?xml version="1.0" encoding="UTF-8" standalone="no"?>
<!-- Created with Inkscape (http://www.inkscape.org/) -->

<svg
   xmlns:dc="http://purl.org/dc/elements/1.1/"
   xmlns:cc="http://creativecommons.org/ns#"
   xmlns:rdf="http://www.w3.org/1999/02/22-rdf-syntax-ns#"
   xmlns:svg="http://www.w3.org/2000/svg"
   xmlns="http://www.w3.org/2000/svg"
   xmlns:sodipodi="http://sodipodi.sourceforge.net/DTD/sodipodi-0.dtd"
   xmlns:inkscape="http://www.inkscape.org/namespaces/inkscape"
   width="48pt"
   height="48pt"
   viewBox="0 0 16.933334 16.933333"
   version="1.1"
   id="svg979"
   inkscape:version="0.92.4 (5da689c313, 2019-01-14)"
   sodipodi:docname="25 - Bracelette.svg"
   inkscape:export-filename="E:\TR Design Studio Creative\Project Design\TR Creative Design\Icon Design\Project Hiring\Icon Icons\Project - 001\002 - Beauty And Fashion\Send\Line\25 - Bracelette.png"
   inkscape:export-xdpi="768"
   inkscape:export-ydpi="768">
  <defs
     id="defs973" />
  <sodipodi:namedview
     id="base"
     pagecolor="#ffffff"
     bordercolor="#666666"
     borderopacity="1.0"
     inkscape:pageopacity="0.0"
     inkscape:pageshadow="2"
     inkscape:zoom="8.546875"
     inkscape:cx="32"
     inkscape:cy="32"
     inkscape:document-units="pt"
     inkscape:current-layer="layer1"
     showgrid="false"
     units="pt"
     inkscape:window-width="1366"
     inkscape:window-height="716"
     inkscape:window-x="-8"
     inkscape:window-y="-8"
     inkscape:window-maximized="1"
     inkscape:snap-bbox="true"
     inkscape:bbox-nodes="true"
     inkscape:snap-nodes="false"
     showguides="false">
    <inkscape:grid
       type="xygrid"
       id="grid1526" />
    <sodipodi:guide
       position="0.97013909,15.963209"
       orientation="56.666615,0"
       id="guide1528"
       inkscape:locked="false" />
    <sodipodi:guide
       position="0.97013909,0.97016731"
       orientation="0,56.666667"
       id="guide1530"
       inkscape:locked="false" />
    <sodipodi:guide
       position="15.963195,0.97016731"
       orientation="-56.666615,0"
       id="guide1532"
       inkscape:locked="false" />
    <sodipodi:guide
       position="15.963195,15.963209"
       orientation="0,-56.666667"
       id="guide1534"
       inkscape:locked="false" />
  </sodipodi:namedview>
  <metadata
     id="metadata976">
    <rdf:RDF>
      <cc:Work
         rdf:about="">
        <dc:format>image/svg+xml</dc:format>
        <dc:type
           rdf:resource="http://purl.org/dc/dcmitype/StillImage" />
        <dc:title></dc:title>
      </cc:Work>
    </rdf:RDF>
  </metadata>
  <g
     inkscape:label="Layer 1"
     inkscape:groupmode="layer"
     id="layer1"
     transform="translate(0,-280.06668)">
    <path
       style="color:#000000;font-style:normal;font-variant:normal;font-weight:normal;font-stretch:normal;font-size:medium;line-height:normal;font-family:sans-serif;font-variant-ligatures:normal;font-variant-position:normal;font-variant-caps:normal;font-variant-numeric:normal;font-variant-alternates:normal;font-feature-settings:normal;text-indent:0;text-align:start;text-decoration:none;text-decoration-line:none;text-decoration-style:solid;text-decoration-color:#000000;letter-spacing:normal;word-spacing:normal;text-transform:none;writing-mode:lr-tb;direction:ltr;text-orientation:mixed;dominant-baseline:auto;baseline-shift:baseline;text-anchor:start;white-space:normal;shape-padding:0;clip-rule:nonzero;display:inline;overflow:visible;visibility:visible;opacity:1;isolation:auto;mix-blend-mode:normal;color-interpolation:sRGB;color-interpolation-filters:linearRGB;solid-color:#000000;solid-opacity:1;vector-effect:none;fill:#000000;fill-opacity:1;fill-rule:evenodd;stroke:none;stroke-width:0.52916694;stroke-linecap:round;stroke-linejoin:miter;stroke-miterlimit:4;stroke-dasharray:none;stroke-dashoffset:0;stroke-opacity:1;color-rendering:auto;image-rendering:auto;shape-rendering:auto;text-rendering:auto;enable-background:accumulate"
       d="m 12.792108,281.03702 c -0.469343,-0.002 -0.969178,0.0623 -1.485542,0.18814 -1.6106813,0.39251 -3.4314163,1.37854 -5.1820294,2.86564 l -0.2834701,-0.28346 c -0.060857,-0.0625 -0.144426,-0.0979 -0.2317023,-0.0979 -0.2879827,0.002 -0.4293928,0.35168 -0.2241255,0.55368 l 1.2336371,1.23364 c 0.3029036,0.35362 0.8094454,-0.15292 0.4558278,-0.45583 l -0.4918147,-0.49182 c 1.6763217,-1.41461 3.4107662,-2.33737 4.8764621,-2.69455 1.515617,-0.36936 2.690924,-0.14648 3.33031,0.64207 0.706967,0.87197 0.688739,2.42209 -0.0423,4.22556 -0.02832,-0.002 -0.05564,-0.009 -0.08459,-0.009 -0.515141,0 -0.940066,0.42492 -0.940066,0.94006 0,0.26776 0.11599,0.50981 0.298624,0.68185 -0.07911,-0.022 -0.160598,-0.0373 -0.246223,-0.0373 -0.51514,0 -0.940063,0.42492 -0.940063,0.94006 0,0.19038 0.05864,0.36821 0.157835,0.51707 -0.102783,-0.0391 -0.21267,-0.0632 -0.328298,-0.0632 -0.515137,0 -0.937538,0.42555 -0.937538,0.9407 0,0.16574 0.04722,0.31922 0.123745,0.4552 -0.0563,0.0606 -0.111518,0.12119 -0.1692,0.18119 -0.228353,0.23706 -0.461422,0.46247 -0.696367,0.68185 -0.140327,-0.0833 -0.30185,-0.13448 -0.475397,-0.13448 -0.5151409,0 -0.938169,0.42303 -0.938169,0.93818 0,0.13128 0.028187,0.25652 0.077653,0.37059 -0.1521031,-0.10592 -0.3355351,-0.16921 -0.5328507,-0.16921 -0.51514,0 -0.9400624,0.42494 -0.9400624,0.94008 0,0.0693 0.0088,0.1368 0.02337,0.20202 -0.1683301,-0.15663 -0.3917444,-0.25442 -0.6370198,-0.25442 -0.5151368,0 -0.9381681,0.42491 -0.9381681,0.94006 0,0.0142 0.00379,0.0276 0.00442,0.0417 -1.6221652,0.6521 -3.0554517,0.7278 -3.9515495,0.19887 -0.9000543,-0.53126 -1.2285654,-1.58409 -0.9848867,-3.03295 0.2349703,-1.39709 1.0351482,-3.10655 2.3593102,-4.8108 0.105362,0.0322 0.2142374,0.055 0.3295585,0.055 0.6286219,0 1.1446186,-0.51599 1.1446186,-1.14461 0,-0.62861 -0.5159967,-1.14651 -1.1446186,-1.14651 -0.6286187,0 -1.1465096,0.5179 -1.1465096,1.14651 0,0.28045 0.1071273,0.53519 0.2771571,0.73487 -1.3570328,1.75571 -2.2017345,3.52523 -2.4596942,5.05892 -0.26959623,1.60297 0.1261854,3.00591 1.2961367,3.69649 1.1672684,0.689 2.7976117,0.54292 4.5317491,-0.15847 0.1715787,0.18408 0.4135634,0.30179 0.6824778,0.30179 0.5151401,0 0.9400623,-0.42556 0.9400623,-0.94069 0,-0.0696 -0.00863,-0.1371 -0.02337,-0.20266 0.1684011,0.15696 0.3914373,0.25568 0.6370197,0.25568 0.5151402,0 0.9406966,-0.42554 0.9406966,-0.94069 0,-0.12978 -0.02712,-0.25379 -0.075762,-0.3668 0.1508694,0.10421 0.3328624,0.16603 0.5284324,0.16603 0.51514,0 0.940063,-0.42554 0.940063,-0.94069 0,-0.10653 -0.02211,-0.2073 -0.05556,-0.30304 0.02279,-0.0211 0.04546,-0.0425 0.06818,-0.0638 -0.0019,0.024 -0.007,0.0469 -0.007,0.0713 0,0.51515 0.422401,0.94069 0.937537,0.9407 0.01136,0 0.02214,-0.002 0.03346,-0.004 -0.09576,0.21674 -0.15026,0.45585 -0.15026,0.70711 0,0.96906 0.792367,1.76081 1.761435,1.76081 0.969067,0 1.760806,-0.79175 1.760806,-1.76081 0,-0.96908 -0.791739,-1.76143 -1.760806,-1.76143 -0.251259,0 -0.490373,0.0545 -0.707099,0.15025 3.23e-4,-0.011 0.0032,-0.0221 0.0032,-0.0335 0,-0.4132 -0.275573,-0.76389 -0.649649,-0.8883 0.506082,-0.011 0.921123,-0.42972 0.921123,-0.93816 0,-0.19058 -0.05841,-0.36871 -0.157834,-0.51771 0.1026,0.039 0.212246,0.0632 0.327665,0.0632 0.51514,0 0.940065,-0.42492 0.940065,-0.94006 0,-0.26844 -0.11709,-0.51038 -0.300518,-0.68249 0.07971,0.0224 0.161771,0.0385 0.248117,0.0385 0.515136,0 0.937538,-0.42556 0.937538,-0.94069 0,-0.25294 -0.102991,-0.48297 -0.26769,-0.6528 0.795831,-1.9391 0.896615,-3.75173 -0.04357,-4.91119 -0.580785,-0.71626 -1.464396,-1.04688 -2.496945,-1.05244 z m -8.4106982,4.55385 c 0.2792322,0 0.4981276,0.22079 0.4981276,0.50002 0,0.27923 -0.2188954,0.49813 -0.4981276,0.49813 -0.085117,0 -0.1632551,-0.0226 -0.2329631,-0.0588 -0.019912,-0.0153 -0.041508,-0.0282 -0.064397,-0.0385 -0.1230466,-0.0899 -0.2026587,-0.23412 -0.2026587,-0.40091 0,-0.27922 0.2207895,-0.50001 0.5000187,-0.50001 z m 10.2813552,1.76965 c 0.165747,0 0.291047,0.12718 0.291047,0.29293 0,0.16575 -0.1253,0.29357 -0.291047,0.29357 -0.165751,0 -0.293574,-0.12782 -0.293574,-0.29357 0,-0.16575 0.127823,-0.29293 0.293574,-0.29293 z m -0.887665,1.58402 c 0.165751,0 0.293572,0.12783 0.293576,0.29357 0,0.16575 -0.127825,0.29358 -0.293576,0.29358 -0.16575,0 -0.293571,-0.12783 -0.293571,-0.29358 0,-0.16574 0.127821,-0.29357 0.293571,-0.29357 z m -1.110526,1.39589 c 0.165751,0 0.294205,0.12653 0.294205,0.2923 0,0.16575 -0.128454,0.29422 -0.294205,0.29422 -0.165747,0 -0.291677,-0.1285 -0.291677,-0.29422 0,-0.16573 0.12593,-0.2923 0.291677,-0.2923 z m -0.271474,1.82582 c 0.165751,0 0.293572,0.1272 0.293572,0.29295 0,0.16575 -0.127821,0.29357 -0.293572,0.29357 -0.165747,0 -0.292941,-0.12782 -0.292941,-0.29357 0,-0.16575 0.127194,-0.29295 0.292941,-0.29295 z m -1.883282,0.29673 c 0.16575,0 0.294205,0.12591 0.294205,0.29169 0,0.16575 -0.128458,0.2942 -0.294205,0.2942 -0.165751,0 -0.291678,-0.12849 -0.291678,-0.2942 0,-0.16575 0.125927,-0.29169 0.291678,-0.29169 z m 3.527919,0.52655 c 0.619678,0 1.116209,0.49462 1.116209,1.1143 0,0.61969 -0.496531,1.11432 -1.116209,1.11432 -0.619677,0 -1.11431,-0.49463 -1.11431,-1.11432 0,-0.61968 0.494633,-1.1143 1.11431,-1.1143 z m 0.02082,0.26957 c -0.178025,0.002 -0.320282,0.149 -0.318193,0.32704 v 0.18624 h -0.186247 c -0.431417,0 -0.431417,0.64713 0,0.64713 h 0.186245 v 0.18624 c -0.01497,0.44572 0.661459,0.44572 0.64649,0 v -0.18624 h 0.186244 c 0.294998,0.004 0.44093,-0.35662 0.22602,-0.55874 -0.061,-0.0577 -0.14206,-0.0894 -0.22602,-0.0883 h -0.186244 v -0.18624 c 9.7e-4,-0.087 -0.03315,-0.17079 -0.09471,-0.23233 -0.06184,-0.0618 -0.146125,-0.096 -0.233595,-0.0947 z m -4.9421201,0.34534 c 0.1657506,0 0.2916804,0.12591 0.2916804,0.29169 0,0.16575 -0.1259298,0.2942 -0.2916804,0.2942 -0.1657506,0 -0.2942019,-0.12848 -0.2942019,-0.2942 0,-0.16575 0.1284545,-0.29169 0.2942019,-0.29169 z m -1.5537245,0.88515 c 0.1657506,0 0.2942051,0.12847 0.2942051,0.2942 0,0.16575 -0.1284545,0.2942 -0.2942051,0.2942 -0.1657472,0 -0.2916772,-0.1285 -0.2916772,-0.2942 0,-0.16576 0.12593,-0.2942 0.2916772,-0.2942 z"
       id="path47"
       inkscape:connector-curvature="0"
       sodipodi:nodetypes="csccccccccccsscsscsscccsscsscsscccccsssccccsscsscssccsccsssscscscsscssccccsssccsssssssscssssssssssssssssssssssscccsscccccccccccssssssssss" />
  </g>
</svg>
