<?xml version="1.0" encoding="iso-8859-1"?>
<!-- Generator: Adobe Illustrator 17.1.0, SVG Export Plug-In . SVG Version: 6.00 Build 0)  -->
<!DOCTYPE svg PUBLIC "-//W3C//DTD SVG 1.1//EN" "http://www.w3.org/Graphics/SVG/1.1/DTD/svg11.dtd">
<svg version="1.1" id="Capa_1" xmlns="http://www.w3.org/2000/svg" xmlns:xlink="http://www.w3.org/1999/xlink" x="0px" y="0px"
	 viewBox="0 0 428.303 428.303" style="enable-background:new 0 0 428.303 428.303;" xml:space="preserve">
<path d="M415.795,252.691h-87.7l-8.711-119.643c-0.986-13.556-12.848-24.584-26.439-24.584h-23.528v-9.077
	C269.416,44.585,224.831,0,170.028,0C115.225,0,70.64,44.585,70.64,99.388v9.077H47.112c-13.592,0-25.452,11.028-26.439,24.584
	L2.575,381.606c-0.488,6.707,1.705,13.049,6.174,17.855c4.47,4.808,10.635,7.455,17.36,7.455h150.207v11.386c0,5.514,4.486,10,10,10
	h229.479c5.514,0,10-4.486,10-10V262.691C425.795,257.178,421.309,252.691,415.795,252.691z M85.64,178.093
	c-11.203,0-20.284-9.082-20.284-20.284c0-11.203,9.082-20.284,20.284-20.284c11.203,0,20.284,9.082,20.284,20.284
	C105.924,169.011,96.843,178.093,85.64,178.093z M100.64,108.465v-9.077C100.64,61.127,131.767,30,170.028,30
	c38.261,0,69.388,31.127,69.388,69.388v9.077H100.64z M234.132,157.808c0-11.203,9.082-20.284,20.284-20.284
	s20.284,9.082,20.284,20.284c0,11.203-9.082,20.284-20.284,20.284S234.132,169.011,234.132,157.808z M350.141,344.757
	c-7.861,11.954-41.7,40.379-49.034,40.379c-7.18,0-41.328-28.528-49.137-40.379c-3.909-5.933-6.684-12.48-6.225-21.086
	c0.816-15.233,13.271-27.813,28.526-27.813c15.682,0,24.815,16.732,26.785,16.732c2.251,0,11.774-16.732,26.785-16.732
	c15.253,0,27.708,12.579,28.524,27.813C356.825,332.277,354.06,338.798,350.141,344.757z"/>
<g>
</g>
<g>
</g>
<g>
</g>
<g>
</g>
<g>
</g>
<g>
</g>
<g>
</g>
<g>
</g>
<g>
</g>
<g>
</g>
<g>
</g>
<g>
</g>
<g>
</g>
<g>
</g>
<g>
</g>
</svg>
